inDegrees=yes
name=ik_lifting_orientations
DataType=double
version=3
OpenSimVersion=4.5-2024-01-10-34fd6af
endheader
time	pelvis_tilt	pelvis_list	pelvis_rotation	pelvis_tx	pelvis_ty	pelvis_tz	hip_flexion_r	hip_adduction_r	hip_rotation_r	knee_angle_r	knee_angle_r_beta	ankle_angle_r	subtalar_angle_r	mtp_angle_r	hip_flexion_l	hip_adduction_l	hip_rotation_l	knee_angle_l	knee_angle_l_beta	ankle_angle_l	subtalar_angle_l	mtp_angle_l	lumbar_extension	lumbar_bending	lumbar_rotation	arm_flex_r	arm_add_r	arm_rot_r	elbow_flex_r	pro_sup_r	wrist_flex_r	wrist_dev_r	arm_flex_l	arm_add_l	arm_rot_l	elbow_flex_l	pro_sup_l	wrist_flex_l	wrist_dev_l
0.02	0.01213230192550091	-0.005044450587126739	7.973996078957978	0	0.9399999998679526	0	43.53486244103613	-10.16076380325425	0	61.0173526666183	1.064953704883031	-4.981550334065727	0	0	43.53486244103613	-10.16076380325425	0	61.0173526666183	1.064953704883031	-4.981550334065727	0	0	-0.01867533760939396	-0.001080814866115866	-0.003012806520386879	-0.23566983195721	-0.04167270432896517	-0.01152466191955585	0.5052439947465091	-0.1383695099300254	0	0	0	-11.59318167260235	0	90.62079259463407	-0.1383695099300254	0	0
0.03	-0.2438184357120572	-1.791362281514182	8.776231105453929	0	0.9399999998679526	0	43.53533385334512	-10.16058368015693	0	61.01709519816505	1.064949211210802	-4.981577281759706	0	0	43.53533385334512	-10.16058368015693	0	61.01709519816505	1.064949211210802	-4.981577281759706	0	0	0.4962952083160926	1.733838400206496	-0.8299237286678394	-0.173345922478274	-0.6020036733954308	-1.098311116312531	0.9311177642245869	-0.1383385428823479	0	0	0	-11.59374415017987	0	90.62065353218527	-0.1383385428823479	0	0
0.04	-1.129769777200975	-4.355832457652571	9.278204604079043	0	0.9399999998679526	0	43.53671765020304	-10.16005777785464	0	61.01633890675912	1.064936011435664	-4.981655790685942	0	0	43.53671765020304	-10.16005777785464	0	61.01633890675912	1.064936011435664	-4.981655790685942	0	0	1.829079030282664	4.11652234705663	-1.426265916543802	-0.3316782854115372	-0.1298081463520098	-0.5197453609296711	0.8823594691684823	-0.1382475881493839	0	0	0	-11.59539668442805	0	90.62024508555822	-0.1382475881493839	0	0
0.05	-1.620593192193293	-6.482955629381767	10.8606383228679	0	0.9399999998679526	0	43.53732838354809	-10.15982457271429	0	61.01600593869077	1.064930200046567	-4.981690649464843	0	0	43.53732838354809	-10.15982457271429	0	61.01600593869077	1.064930200046567	-4.981690649464843	0	0	2.834686849671257	6.064217077451354	-3.134506110364119	-1.613689370750208	-1.026586102269734	-0.9660504128487529	0.9564423851533466	-0.1382074850623701	0	0	0	-11.59612479188661	0	90.62006499625835	-0.1382074850623701	0	0
0.06	-2.640602822414247	-7.646017908668404	11.26606691712968	0	0.9399999998679526	0	43.54677507834074	-10.15738625374654	0	61.00945376686977	1.064815843075134	-4.982023255025747	0	0	43.54677507834074	-10.15738625374654	0	61.00945376686977	1.064815843075134	-4.982023255025747	0	0	3.490278299850981	3.411915791000578	-3.493902600175207	-1.387723081390324	2.540424475915595	-0.4862143970224916	1.112361723384372	-0.1375223822761109	0	0	0	-11.60956689672451	0	90.61698850910544	-0.1375223822761109	0	0
0.07000000000000001	-2.757060251888208	-9.442083722764695	12.05241633761043	0	0.9399999998679526	0	43.55515040426327	-10.15519666706614	0	61.00369304857033	1.064715299573529	-4.982323053598919	0	0	43.55515040426327	-10.15519666706614	0	61.00369304857033	1.064715299573529	-4.982323053598919	0	0	2.790174555247306	1.709649520053518	-2.700966520630816	-0.1999482640112857	5.536705198861195	-2.159535588712087	0.8206863587869637	-0.1369165280003375	0	0	0	-11.62143218880174	0	90.6142678895785	-0.1369165280003375	0	0
0.08	-3.160908092415328	-11.65350475742543	13.62044989182653	0	0.9399999998679526	0	43.56400109523599	-10.15292969169696	0	60.99757156936848	1.064608459606365	-4.982631480825283	0	0	43.56400109523599	-10.15292969169696	0	60.99757156936848	1.064608459606365	-4.982631480825283	0	0	2.670306829973665	-0.161647374562379	-3.480697451382265	0.5022576510934245	8.635495302460358	-3.147523903607584	1.102121180603575	-0.1362738429771525	0	0	0	-11.63405233997136	0	90.61138188219613	-0.1362738429771525	0	0
0.09	-4.342827325845851	-12.43899936427589	14.61483551722469	0	0.9399999998679526	0	43.57549033676852	-10.14992490137135	0	60.98977923075573	1.064472457641142	-4.983041674642032	0	0	43.57549033676852	-10.14992490137135	0	60.98977923075573	1.064472457641142	-4.983041674642032	0	0	2.358136155604873	-3.783273958206308	-4.931960784920601	0.6839544587494174	12.6872946223994	-2.972974047887757	2.115137283182214	-0.1354444357091013	0	0	0	-11.65026512028136	0	90.60765738447046	-0.1354444357091013	0	0
0.1	-5.564806964109948	-14.07638813010107	15.7471628342736	0	0.9399999998679526	0	43.58359725840486	-10.14786015962568	0	60.98420521487323	1.064375172711434	-4.983321870579744	0	0	43.58359725840486	-10.14786015962568	0	60.98420521487323	1.064375172711434	-4.983321870579744	0	0	2.373359699294491	-7.317188605205764	-5.491449447039966	1.727568812071903	16.48022876306987	-4.755217256242328	2.547777458255541	-0.134855461528152	0	0	0	-11.66183296665097	0	90.60501256835941	-0.134855461528152	0	0
0.11	-6.714587344878071	-14.87381010056828	16.69527143781903	0	0.9399999998679526	0	43.58482361178665	-10.14741466799828	0	60.98353631578117	1.064363498219914	-4.983387317118781	0	0	43.58482361178665	-10.14741466799828	0	60.98353631578117	1.064363498219914	-4.983387317118781	0	0	2.264068538342156	-10.2399879892584	-5.297104687744604	3.192106421355144	19.83980263085707	-6.648349409295299	2.540059150812429	-0.1347742941780849	0	0	0	-11.66331418236458	0	90.60464807446931	-0.1347742941780849	0	0
0.12	-7.240746596023528	-15.82168180613374	18.2802818136038	0	0.9399999998679526	0	43.59319061935701	-10.1453220519246	0	60.97776070022309	1.064262694712096	-4.983669619987958	0	0	43.59319061935701	-10.1453220519246	0	60.97776070022309	1.064262694712096	-4.983669619987958	0	0	2.350244441677644	-12.95163747760227	-5.999727526348542	2.612628120601128	22.81030114702454	-7.854515208790207	3.18646725024456	-0.1341644602131994	0	0	0	-11.67531838194823	0	90.60190958845588	-0.1341644602131994	0	0
0.13	-8.339499098212036	-16.66054145066943	19.19980958568287	0	0.9399999998679526	0	43.59945674430976	-10.14372010114202	0	60.97348776309875	1.064188117890545	-4.983887079412905	0	0	43.59945674430976	-10.14372010114202	0	60.97348776309875	1.064188117890545	-4.983887079412905	0	0	1.373189649205708	-15.55065434723026	-6.962486539437983	4.450147512994878	25.22250168900195	-8.450466385945312	2.908211254019448	-0.1337097870411674	0	0	0	-11.68423948578405	0	90.59986785671212	-0.1337097870411674	0	0
0.14	-8.805213755164216	-16.74623781619435	20.59280547080364	0	0.9399999998679526	0	43.60084927220532	-10.14322207602566	0	60.97272865514815	1.064174868957429	-4.983959828998155	0	0	43.60084927220532	-10.14322207602566	0	60.97272865514815	1.064174868957429	-4.983959828998155	0	0	0.3761286857610912	-17.66799706710543	-7.150482864719841	5.664882535091031	26.67301140208449	-10.93129686242797	3.709552577923942	-0.1336174020484223	0	0	0	-11.68592797697566	0	90.59945298870883	-0.1336174020484223	0	0
0.15	-9.044015152948139	-17.22763125802661	21.39378189221652	0	0.9399999998679526	0	43.6020033446561	-10.14281016649861	0	60.97209941153911	1.064163886584655	-4.984019947518255	0	0	43.6020033446561	-10.14281016649861	0	60.97209941153911	1.064163886584655	-4.984019947518255	0	0	-0.5014635754478377	-19.35173770421135	-6.700315601689645	7.334369686875652	28.62467913987217	-13.08728643463383	3.695610202095111	-0.1335408168988353	0	0	0	-11.6873279310395	0	90.59910907218497	-0.1335408168988353	0	0
0.16	-10.35281007645819	-18.61871725895148	23.06594086833283	0	0.9399999998679526	0	43.60302654354703	-10.14244562564941	0	60.97154137248679	1.064154146965837	-4.984073113449894	0	0	43.60302654354703	-10.14244562564941	0	60.97154137248679	1.064154146965837	-4.984073113449894	0	0	-1.213924320590971	-19.70138372306106	-7.821726537389075	9.275374745209037	29.2474753106674	-14.97300674869139	4.096846065796825	-0.1334728986099816	0	0	0	-11.68856968197865	0	90.59880407545819	-0.1334728986099816	0	0
